<svg width="66" height="66" viewBox="0 0 66 66" fill="none" xmlns="http://www.w3.org/2000/svg">
<path d="M52.2497 5.5H24.7497C21.7164 5.5 19.2497 7.96675 19.2497 11V26.3615L6.30541 39.3058C5.92093 39.6903 5.65911 40.1803 5.55305 40.7137C5.44699 41.247 5.50145 41.7999 5.70954 42.3023C5.91764 42.8047 6.27002 43.2342 6.72215 43.5364C7.17427 43.8385 7.70584 43.9999 8.24966 44V57.75C8.24966 58.4793 8.53939 59.1788 9.05511 59.6945C9.57084 60.2103 10.2703 60.5 10.9997 60.5H54.9997C55.729 60.5 56.4285 60.2103 56.9442 59.6945C57.4599 59.1788 57.7497 58.4793 57.7497 57.75V11C57.7497 7.96675 55.2829 5.5 52.2497 5.5ZM30.2497 55H13.7497V39.6385L21.9997 31.3885L30.2497 39.6385V55ZM52.2497 55H35.7497V44C36.2941 44.0012 36.8265 43.8406 37.2795 43.5387C37.7325 43.2367 38.0856 42.807 38.2939 42.304C38.5022 41.801 38.5564 41.2475 38.4496 40.7137C38.3427 40.1799 38.0797 39.6898 37.6939 39.3058L24.7497 26.3615V11H52.2497V55Z" fill="#1098F7"/>
<path d="M30.25 16.5H35.75V22H30.25V16.5ZM41.25 16.5H46.75V22H41.25V16.5ZM41.25 27.5853H46.75V33H41.25V27.5853ZM41.25 38.5H46.75V44H41.25V38.5ZM19.25 41.25H24.75V46.75H19.25V41.25Z" fill="#1098F7"/>
</svg>
