<svg width="60" height="56" viewBox="0 0 60 56" fill="none" xmlns="http://www.w3.org/2000/svg">
<path d="M57.043 7.74778H51.4941C50.8181 7.74896 50.1702 7.97525 49.6927 8.37698C49.2152 8.77871 48.947 9.32307 48.947 9.89061V20.7867H39.0975C38.7439 20.5902 38.3796 20.4039 38.0087 20.2286V9.89061C38.0087 9.32307 37.7406 8.77871 37.263 8.37698C36.7855 7.97525 36.1377 7.74896 35.4616 7.74778H29.9127C29.2367 7.74896 28.5888 7.97525 28.1113 8.37698C27.6338 8.77871 27.3656 9.32307 27.3656 9.89061V18.5322C26.1442 18.6692 24.944 18.9161 23.7855 19.2688C23.5957 17.9382 22.9964 16.672 22.0467 15.5948L16.3303 9.08147V6.62614H18.1409C18.2631 6.62614 18.3841 6.60594 18.497 6.56667C18.6099 6.52741 18.7125 6.46987 18.7989 6.39732C18.8854 6.32478 18.9539 6.23865 19.0007 6.14387C19.0474 6.04909 19.0715 5.9475 19.0715 5.8449V2.83155C19.0712 2.25918 18.8002 1.71034 18.3181 1.30562C17.836 0.900894 17.1822 0.673391 16.5005 0.673096H7.48848C6.8074 0.673982 6.15453 0.901592 5.67305 1.30601C5.19158 1.71043 4.9208 2.25865 4.92009 2.83043V5.84379C4.92009 6.05098 5.01814 6.2497 5.19265 6.39621C5.36717 6.54272 5.60387 6.62503 5.85067 6.62503H7.49513V9.31249L1.87312 15.5624C0.661955 16.914 0.00479113 18.5585 0 20.2498V51.4124C0.00175891 52.5924 0.560887 53.7236 1.55475 54.558C2.54862 55.3923 3.89609 55.8617 5.30163 55.8632H18.5544C19.9599 55.8617 21.3074 55.3923 22.3012 54.558C23.2951 53.7236 23.8542 52.5924 23.856 51.4124V46.4504C24.9923 46.7929 26.1688 47.0331 27.3656 47.1669V52.2572C27.3652 53.2118 27.8158 54.1274 28.6186 54.8034C29.4213 55.4794 30.5106 55.8606 31.6476 55.8632H55.3042C56.441 55.8606 57.5302 55.4794 58.3327 54.8034C59.1352 54.1273 59.5855 53.2117 59.5848 52.2572V9.89061C59.5852 9.32375 59.3178 8.77989 58.8414 8.37822C58.3649 7.97656 57.7182 7.74985 57.043 7.74778ZM48.9337 22.3491C48.8757 22.7779 48.6322 23.1739 48.2495 23.462C47.8667 23.75 47.3712 23.91 46.8572 23.9116H43.1482C42.6274 23.3568 42.0592 22.8346 41.4479 22.3491H48.9337ZM44.9934 32.8501C44.9934 35.3978 44.0936 37.8882 42.4077 40.0065C40.7218 42.1248 38.3255 43.7759 35.522 44.7509C32.7184 45.7259 29.6334 45.9812 26.657 45.4843C23.6807 44.9874 20.9467 43.7608 18.8007 41.9595C16.6547 40.1582 15.1931 37.8632 14.6008 35.3646C14.0084 32.8659 14.3119 30.276 15.4728 27.9221C16.6338 25.5683 18.6 23.5563 21.123 22.1406C23.6459 20.7249 26.6122 19.969 29.6468 19.9686C33.7149 19.9724 37.615 21.3308 40.4916 23.7458C43.3681 26.1607 44.9862 29.4349 44.9907 32.8501H44.9934ZM29.2294 12.0915H33.2176C33.4644 12.0915 33.7011 12.0092 33.8756 11.8627C34.0501 11.7161 34.1482 11.5174 34.1482 11.3102C34.1482 11.103 34.0501 10.9043 33.8756 10.7578C33.7011 10.6113 33.4644 10.529 33.2176 10.529H29.2294V9.89061C29.2291 9.73737 29.3011 9.59026 29.4296 9.48149C29.5582 9.37271 29.7329 9.31114 29.9154 9.31026H35.4643C35.6468 9.31114 35.8215 9.37271 35.9501 9.48149C36.0786 9.59026 36.1506 9.73737 36.1503 9.89061V19.4775C34.0873 18.768 31.8789 18.4041 29.6495 18.4061C29.5086 18.4061 29.369 18.4061 29.2294 18.4061V12.0915ZM6.78125 5.06478V2.83267C6.78125 2.6749 6.8559 2.52359 6.98878 2.41204C7.12166 2.30048 7.30189 2.23781 7.48981 2.23781H16.5018C16.6897 2.23781 16.8699 2.30048 17.0028 2.41204C17.1357 2.52359 17.2104 2.6749 17.2104 2.83267V5.06478H6.78125ZM14.4691 6.62726V8.12835H9.35629V6.62726H14.4691ZM21.9962 51.4124C21.9951 52.1782 21.6323 52.9123 20.9873 53.4538C20.3423 53.9953 19.4678 54.2999 18.5557 54.3007H17.8817L19.1646 52.4994C19.2799 52.3223 19.3092 52.1146 19.2461 51.9198C19.1831 51.725 19.0327 51.5582 18.8264 51.4544C18.6201 51.3507 18.374 51.318 18.1397 51.3632C17.9053 51.4084 17.7009 51.528 17.5693 51.697L15.7081 54.3007H13.1025V52.0976C13.1025 51.8904 13.0045 51.6917 12.83 51.5452C12.6554 51.3987 12.4187 51.3164 12.1719 51.3164C11.9251 51.3164 11.6884 51.3987 11.5139 51.5452C11.3394 51.6917 11.2414 51.8904 11.2414 52.0976V54.3007H8.6424L6.78125 51.697C6.72113 51.6047 6.63944 51.5235 6.54107 51.4584C6.44269 51.3933 6.32966 51.3455 6.20876 51.3179C6.08785 51.2903 5.96156 51.2835 5.83744 51.2979C5.71333 51.3123 5.59396 51.3476 5.48649 51.4017C5.37901 51.4557 5.28565 51.5274 5.21199 51.6125C5.13834 51.6976 5.0859 51.7943 5.05784 51.8968C5.02978 51.9993 5.02666 52.1056 5.04868 52.2091C5.0707 52.3126 5.11739 52.4114 5.18597 52.4994L6.46884 54.3007H5.29897C4.38751 54.299 3.51405 53.994 2.86993 53.4526C2.2258 52.9112 1.86354 52.1776 1.86248 51.4124V38.7574H10.1792C10.426 38.7574 10.6627 38.6751 10.8372 38.5286C11.0117 38.3821 11.1098 38.1834 11.1098 37.9762C11.1098 37.769 11.0117 37.5703 10.8372 37.4238C10.6627 37.2772 10.426 37.1949 10.1792 37.1949H1.86248V31.2084H10.1792C10.426 31.2084 10.6627 31.1261 10.8372 30.9796C11.0117 30.8331 11.1098 30.6344 11.1098 30.4272C11.1098 30.22 11.0117 30.0213 10.8372 29.8748C10.6627 29.7282 10.426 29.6459 10.1792 29.6459H1.86248V20.2554C1.86584 18.9025 2.391 17.5869 3.35938 16.5055L9.4879 9.69083H14.5542L20.5485 16.5189C21.4202 17.507 21.9206 18.6911 21.9855 19.9195C19.1182 21.116 16.7056 22.9607 15.0194 25.2459C13.3332 27.5311 12.4404 30.1661 12.4413 32.8542C12.4423 35.5424 13.3371 38.1769 15.0249 40.4613C16.7128 42.7456 19.1267 44.5891 21.9948 45.7841L21.9962 51.4124ZM55.3042 54.3007H31.6409C31.0249 54.2986 30.4328 54.0999 29.9848 53.7449C29.5367 53.3899 29.2662 52.9052 29.2281 52.3889H57.7197C57.6819 52.9056 57.4111 53.3909 56.9624 53.746C56.5137 54.1011 55.9208 54.2994 55.3042 54.3007ZM57.7237 50.8265H29.2268V47.2908C29.3597 47.2908 29.5059 47.2908 29.6468 47.2908C32.6853 47.2914 35.6697 46.6162 38.2963 45.334C40.923 44.0517 43.0981 42.2081 44.6003 39.9909C46.1025 37.7736 46.8783 35.2618 46.8485 32.7111C46.8188 30.1604 45.9847 27.6618 44.4311 25.4696H46.8545C47.9043 25.4673 48.9101 25.1154 49.6513 24.4913C50.3925 23.8672 50.8085 23.0218 50.8082 22.1404V12.0959H54.7964C55.0432 12.0959 55.2799 12.0136 55.4544 11.8671C55.6289 11.7206 55.7269 11.5219 55.7269 11.3147C55.7269 11.1075 55.6289 10.9088 55.4544 10.7623C55.2799 10.6158 55.0432 10.5335 54.7964 10.5335H50.8082V9.89061C50.8078 9.73737 50.8798 9.59026 51.0084 9.48149C51.1369 9.37271 51.3116 9.31114 51.4941 9.31026H57.043C57.2254 9.31114 57.4 9.37275 57.5283 9.48155C57.6567 9.59036 57.7284 9.73747 57.7277 9.89061L57.7237 50.8265Z" fill="#1098F7"/>
<path d="M27.5208 27.9188V31.516H25.0149C24.5481 31.5158 24.0976 31.6349 23.7494 31.8505C23.4011 32.0662 23.1797 32.3633 23.1273 32.685L22.8767 34.2286L22.7186 35.2034C22.6214 35.8038 22.194 36.3927 21.4493 36.9557C21.2537 37.1031 21.1243 37.2868 21.0767 37.4844C21.0292 37.6819 21.0655 37.8848 21.1813 38.0683C21.2972 38.2518 21.4875 38.4079 21.7291 38.5176C21.9707 38.6273 22.253 38.6859 22.5418 38.6861H35.0712C35.3615 38.6866 35.6488 38.6456 35.9152 38.5655C36.1815 38.4854 36.4212 38.368 36.619 38.2206C36.8169 38.0733 36.9688 37.8991 37.0651 37.7092C37.1615 37.5192 37.2002 37.3174 37.179 37.1166L36.8792 34.2635L36.7199 32.7411C36.6826 32.4101 36.4671 32.101 36.1163 31.8753C35.7654 31.6495 35.305 31.5236 34.8265 31.5225H32.3557V27.9188C32.3628 27.6955 32.3055 27.4734 32.1872 27.2656C32.0689 27.0578 31.892 26.8685 31.6668 26.7088C31.4416 26.5491 31.1727 26.4222 30.8759 26.3356C30.579 26.249 30.2603 26.2043 29.9382 26.2043C29.6162 26.2043 29.2974 26.249 29.0006 26.3356C28.7038 26.4222 28.4349 26.5491 28.2097 26.7088C27.9845 26.8685 27.8076 27.0578 27.6893 27.2656C27.571 27.4734 27.5137 27.6955 27.5208 27.9188ZM35.6543 37.1889C35.6605 37.2448 35.6499 37.3009 35.6232 37.3538C35.5966 37.4067 35.5544 37.4552 35.4994 37.4963C35.4444 37.5373 35.3778 37.57 35.3037 37.5923C35.2296 37.6147 35.1496 37.6261 35.0689 37.6259H33.9787L33.8335 36.422C33.8166 36.2819 33.7201 36.1523 33.5654 36.0616C33.4107 35.9708 33.2104 35.9265 33.0085 35.9382C32.8067 35.95 32.6198 36.0169 32.489 36.1242C32.3582 36.2315 32.2943 36.3705 32.3112 36.5105L32.4482 37.6259H30.4119V36.4667C30.4119 36.3266 30.3317 36.1923 30.189 36.0933C30.0462 35.9943 29.8526 35.9386 29.6508 35.9386C29.4489 35.9386 29.2553 35.9943 29.1126 36.0933C28.9698 36.1923 28.8896 36.3266 28.8896 36.4667V37.6259H26.851L26.9868 36.5138C27.0037 36.3737 26.9398 36.2348 26.809 36.1274C26.6782 36.0201 26.4913 35.9532 26.2895 35.9415C26.0876 35.9297 25.8873 35.9741 25.7326 36.0648C25.5779 36.1555 25.4815 36.2852 25.4645 36.4252L25.3193 37.6292H22.6237C23.5605 36.9094 24.0992 36.1336 24.2315 35.3212L24.3135 34.8175L35.4061 34.8281L35.6543 37.1889ZM34.8206 32.5721C34.9159 32.5724 35.0075 32.5977 35.077 32.6429C35.1466 32.6881 35.1888 32.7499 35.1953 32.8158L35.296 33.7704L24.4856 33.759L24.6402 32.8037C24.6505 32.7398 24.6945 32.6809 24.7637 32.6382C24.8328 32.5954 24.9223 32.5719 25.0149 32.5721H34.8206ZM29.043 27.9188C29.0387 27.8354 29.0586 27.7522 29.1016 27.6742C29.1447 27.5962 29.2099 27.525 29.2935 27.4649C29.377 27.4048 29.4772 27.357 29.588 27.3244C29.6987 27.2917 29.8179 27.2749 29.9382 27.2749C30.0586 27.2749 30.1777 27.2917 30.2885 27.3244C30.3993 27.357 30.4994 27.4048 30.583 27.4649C30.6666 27.525 30.7318 27.5962 30.7748 27.6742C30.8179 27.7522 30.8378 27.8354 30.8334 27.9188V31.3414H29.043V27.9188Z" fill="#1098F7"/>
</svg>
