<svg width="40" height="40" viewBox="0 0 40 40" fill="none" xmlns="http://www.w3.org/2000/svg">
<path d="M34.1424 5.8579C30.3649 2.0804 25.3419 0 20 0C14.6581 0 9.6351 2.0804 5.8576 5.8579C2.0801 9.6354 0 14.6577 0 20C0 25.3423 2.0801 30.3646 5.8576 34.1421C9.6351 37.9196 14.6581 40 20 40C25.3419 40 30.3649 37.9196 34.1424 34.1421C37.9199 30.3646 40 25.3423 40 20C40 14.6577 37.9199 9.6354 34.1424 5.8579ZM20 36.638C10.826 36.638 3.3616 29.1743 3.3616 20C3.3616 10.8257 10.826 3.362 20 3.362C29.174 3.362 36.6384 10.8257 36.6384 20C36.6384 29.1743 29.174 36.638 20 36.638Z" fill="#1098F7"/>
<path d="M13.8803 30.6204C13.2356 30.2484 12.4105 30.4687 12.0372 31.1135C11.6653 31.759 11.8866 32.5842 12.5313 32.9563C12.7435 33.0792 12.9759 33.1377 13.2049 33.1377C13.6707 33.1377 14.1237 32.8958 14.3739 32.4633C14.7462 31.8176 14.5256 30.9926 13.8803 30.6204Z" fill="#1098F7"/>
<path d="M13.1804 9.57576C13.4102 9.57576 13.6436 9.51716 13.8568 9.39356C14.5005 9.01956 14.7201 8.19356 14.3459 7.54976C13.971 6.90516 13.1461 6.68646 12.5021 7.06036C11.8575 7.43436 11.6389 8.25946 12.013 8.90406C12.2633 9.33496 12.7152 9.57576 13.1804 9.57576Z" fill="#1098F7"/>
<path d="M7.53404 14.3813C7.74614 14.503 7.97784 14.5617 8.20664 14.5617C8.67274 14.5617 9.12674 14.3199 9.37604 13.8864C9.74814 13.2418 9.52664 12.4167 8.88194 12.0446C8.23644 11.6716 7.41144 11.893 7.03924 12.5384C6.66704 13.1841 6.88864 14.0083 7.53404 14.3813Z" fill="#1098F7"/>
<path d="M19.9768 7.74501C19.9778 7.74501 19.9778 7.74501 19.9785 7.74501C20.7237 7.74311 21.3264 7.13851 21.3258 6.39341C21.3237 5.64821 20.7194 5.04551 19.9741 5.04731C19.2288 5.04821 18.6262 5.65291 18.6279 6.39791C18.6288 7.14221 19.2324 7.74501 19.9768 7.74501Z" fill="#1098F7"/>
<path d="M7.54592 25.6474C6.90122 26.0204 6.68162 26.8454 7.05582 27.4903C7.30612 27.9217 7.75912 28.1629 8.22432 28.1629C8.45402 28.1629 8.68642 28.1043 8.89962 27.9806C9.54422 27.6077 9.76362 26.7815 9.38962 26.1377C9.01572 25.4931 8.19052 25.2733 7.54592 25.6474Z" fill="#1098F7"/>
<path d="M7.74496 20.0142C7.74396 19.2689 7.13936 18.6663 6.39436 18.6671C5.64926 18.668 5.04646 19.2726 5.04736 20.0168C5.04836 20.762 5.65196 21.3647 6.39626 21.3647H6.39696C7.14236 21.3638 7.74596 20.7591 7.74496 20.0142Z" fill="#1098F7"/>
<path d="M20.0064 32.2549C19.2623 32.2559 18.6584 32.8596 18.6584 33.6046C18.6594 34.3498 19.2633 34.9535 20.0084 34.9525C20.7534 34.9525 21.3573 34.3478 21.3563 33.6027C21.3564 32.8585 20.752 32.2549 20.0064 32.2549Z" fill="#1098F7"/>
<path d="M32.4594 25.6335C31.815 25.2606 30.9901 25.4809 30.6167 26.1256C30.2438 26.7702 30.4642 27.5953 31.1088 27.9684C31.322 28.0913 31.5544 28.1497 31.7831 28.1497C32.2492 28.1497 32.7022 27.9089 32.9515 27.4762C33.3247 26.8316 33.1041 26.0064 32.4594 25.6335Z" fill="#1098F7"/>
<path d="M33.601 18.6194C32.856 18.6213 32.2531 19.2269 32.2551 19.9719C32.2551 19.9794 32.2551 19.9869 32.2551 19.9933C32.2551 19.9962 32.2551 19.998 32.2551 19.9999C32.2551 20.745 32.8586 21.3487 33.6037 21.3487C34.349 21.3487 34.9526 20.745 34.9526 19.9999C34.9526 19.9952 34.9526 19.9896 34.9526 19.9841C34.9526 19.9785 34.9526 19.9719 34.9526 19.9655C34.9509 19.2204 34.346 18.6185 33.601 18.6194Z" fill="#1098F7"/>
<path d="M26.1069 9.37201C26.3188 9.49481 26.5506 9.55241 26.7793 9.55241C27.2454 9.55241 27.6994 9.31061 27.9487 8.87711C28.3209 8.23141 28.0994 7.40641 27.4539 7.03431C26.8082 6.66311 25.983 6.88451 25.6119 7.53021C25.2399 8.17571 25.4613 9.00091 26.1069 9.37201Z" fill="#1098F7"/>
<path d="M26.1314 30.6142C25.4868 30.9871 25.2665 31.8121 25.6404 32.4569C25.8906 32.8884 26.3434 33.1303 26.8088 33.1303C27.0386 33.1303 27.2702 33.0717 27.4831 32.9483C28.1278 32.5753 28.3474 31.7501 27.9745 31.1052C27.6012 30.4605 26.776 30.2401 26.1314 30.6142Z" fill="#1098F7"/>
<path d="M31.7701 14.5219C32.0009 14.5219 32.2333 14.4623 32.4472 14.3386C33.0911 13.9637 33.3098 13.1386 32.9349 12.4949C32.5609 11.8502 31.7348 11.6325 31.0911 12.0065C30.4472 12.3804 30.2286 13.2064 30.6027 13.8502C30.853 14.2809 31.305 14.5219 31.7701 14.5219Z" fill="#1098F7"/>
<path d="M28.4758 20.9456L21.3926 20.4625L20.6856 10.0881C20.6612 9.7312 20.3644 9.4541 20.0065 9.4541C19.6487 9.4541 19.3523 9.7312 19.3277 10.0881L18.6332 20.2743L17.4995 20.197C17.3483 20.1866 17.1996 20.2395 17.0889 20.343C16.9784 20.4464 16.9155 20.5912 16.9155 20.7428V22.24C16.9155 22.3917 16.9784 22.5363 17.0889 22.6397C17.1905 22.7346 17.3242 22.7871 17.4624 22.7871C17.4746 22.7871 17.487 22.7867 17.4995 22.7859L18.4665 22.7199L18.3967 23.7408C18.3841 23.9289 18.4498 24.1137 18.5784 24.2513C18.707 24.3891 18.8871 24.4673 19.0757 24.4673H20.9375C20.9383 24.4673 20.9392 24.4673 20.9396 24.4673C21.3152 24.4673 21.6198 24.1627 21.6198 23.7869C21.6198 23.7538 21.5327 22.5104 21.5327 22.5104L28.4761 22.037C28.7632 22.0174 28.9862 21.7789 28.9862 21.4912C28.9856 21.2037 28.7629 20.9652 28.4758 20.9456Z" fill="#1098F7"/>
</svg>
