<svg width="60" height="60" viewBox="0 0 60 60" fill="none" xmlns="http://www.w3.org/2000/svg">
<g clip-path="url(#clip0)">
<path d="M6.56906 29.4167C2.45574 29.4167 0 32.3252 0 37.1976V37.824C0 42.6961 2.50852 45.6049 6.71044 45.6049C10.893 45.6049 13.0816 42.9509 13.0816 40.3289V39.978H10.716V40.2152C10.716 41.8259 9.47737 43.4509 6.71044 43.4509C4.05551 43.4509 2.63561 41.8101 2.48732 38.5734H13.0814V37.1976C13.0814 32.3252 10.6469 29.4167 6.56906 29.4167ZM2.48732 36.4479C2.59413 34.1664 3.40533 31.5707 6.54079 31.5707C9.64011 31.5707 10.4656 34.1657 10.5921 36.4479H2.48732Z" fill="#1098F7"/>
<path d="M58.4541 21.485C58.0721 21.3003 49.0163 16.9574 41.5938 16.9574C40.4446 16.9574 39.3754 17.0634 38.4164 17.2725C34.7722 18.0667 32.0681 19.5098 30.3667 21.5604C29.8173 20.8078 29.1251 20.0447 28.2622 19.2792C23.8532 15.3676 14.2364 14.735 13.8292 14.71L12.1169 14.605L12.436 16.3019C12.509 16.6902 14.2095 25.5254 18.2666 29.677C15.403 30.4866 13.748 33.1597 13.748 37.1692V37.8525C13.748 42.7068 16.1721 45.605 20.2324 45.605C24.36 45.605 26.2076 42.9265 26.2076 40.2721V39.5792H23.8419V39.8165C23.8419 40.875 23.4929 43.337 20.2605 43.337C16.9263 43.337 16.2265 40.3547 16.2265 37.8525V37.1692C16.2265 34.6672 16.9263 31.6847 20.2605 31.6847C20.4647 31.6847 20.6567 31.6954 20.8387 31.7149C21.5577 32.1603 22.2721 32.5011 22.9803 32.7388C23.6894 33.5549 23.8418 34.6787 23.8418 35.4898V35.727H26.2075V34.9204C26.2075 34.3104 26.1153 33.6991 25.9272 33.1176C26.4329 33.0736 26.924 32.9721 27.3962 32.8119C26.8247 33.9949 26.5204 35.46 26.5204 37.1692V37.8525C26.5204 42.7068 28.9656 45.605 33.0612 45.605C37.1567 45.605 39.602 42.7069 39.602 37.8525V37.1692C39.602 36.824 39.5881 36.4898 39.5638 36.1646C40.4644 36.0933 41.4088 35.9518 42.3877 35.7386C50.115 34.054 58.5452 23.9866 58.9002 23.5587L60.0003 22.2335L58.4541 21.485ZM28.4747 28.0469L20.1527 21.4505L27.1278 30.0046C26.5823 30.3043 25.9909 30.4558 25.3578 30.4558H25.3575C23.9099 30.4556 22.2368 29.65 20.5192 28.1262C17.8178 25.7293 16.1701 20.363 15.4635 17.5687C18.6847 17.9728 23.9677 19.0525 26.4967 21.2963C27.5972 22.2726 28.3897 23.2453 28.8718 24.1918C28.4566 25.3926 28.3206 26.6893 28.4747 28.0469ZM37.1231 37.8525C37.1231 40.3545 36.4184 43.337 33.0612 43.337C29.7039 43.337 28.9992 40.3547 28.9992 37.8525V37.1692C28.9992 35.6093 29.2735 33.8628 30.2933 32.7687C31.798 34.7428 34.1283 35.9257 37.0823 36.1705C37.1107 36.5064 37.1233 36.842 37.1233 37.1692V37.8525H37.1231ZM41.8224 33.1106C40.5426 33.3896 39.3425 33.531 38.2551 33.531C35.2444 33.531 33.1113 32.4794 31.9779 30.4655L47.4467 24.9271L31.1752 28.0836C30.8931 26.33 31.2577 24.7792 32.2635 23.4699C33.5345 21.8155 35.8575 20.5811 38.9815 19.9003C39.7551 19.7317 40.634 19.6461 41.5937 19.6461C46.6385 19.6461 52.7801 21.9628 55.6594 23.1801C53.148 25.9146 47.1077 31.9585 41.8224 33.1106Z" fill="#1098F7"/>
</g>
<defs>
<clipPath id="clip0">
<rect width="60" height="60" fill="white"/>
</clipPath>
</defs>
</svg>
