<svg width="65" height="64" viewBox="0 0 65 64" fill="none" xmlns="http://www.w3.org/2000/svg">
<path d="M27.4219 3.99609C27.1788 3.99627 26.9438 4.0823 26.7596 4.23855C26.5754 4.39481 26.4543 4.61093 26.4182 4.84766L25.462 11.1914C24.4588 11.521 23.4839 11.917 22.5382 12.3828L17.3093 8.5625C17.1133 8.41936 16.8716 8.35046 16.6283 8.36839C16.385 8.38632 16.1563 8.48989 15.9842 8.66016L8.79944 15.7344C8.62756 15.9036 8.52302 16.128 8.50482 16.3667C8.48662 16.6053 8.55597 16.8425 8.70026 17.0352L12.5763 22.1797C12.1036 23.1131 11.6999 24.0766 11.3663 25.0664L4.93134 26.0039C4.68952 26.0387 4.46854 26.1582 4.30896 26.3404C4.14937 26.5227 4.06187 26.7555 4.0625 26.9961V36.9961C4.06268 37.2355 4.15005 37.4669 4.30875 37.6482C4.46745 37.8295 4.68695 37.9488 4.92737 37.9844L11.3742 38.9258C11.7083 39.9116 12.1121 40.8714 12.5842 41.8008L8.70026 46.9531C8.55488 47.1461 8.4849 47.3841 8.50311 47.6237C8.52133 47.8632 8.62651 48.0883 8.79944 48.2578L15.9842 55.332C16.1568 55.5017 16.3857 55.6046 16.629 55.6218C16.8723 55.639 17.1138 55.5694 17.3093 55.4258L22.5302 51.6133C23.4792 52.0793 24.4594 52.4757 25.466 52.8047L26.4102 59.0859C26.4102 59.0885 26.4102 59.0911 26.4102 59.0938L26.4182 59.1406C26.4361 59.2721 26.4805 59.3988 26.5487 59.5133C26.6169 59.6277 26.7076 59.7277 26.8154 59.8073C26.9232 59.8869 27.046 59.9446 27.1767 59.977C27.3074 60.0094 27.4433 60.0159 27.5766 59.9961H37.4234C37.5636 60.0176 37.7069 60.0099 37.8439 59.9735C37.9809 59.9372 38.1087 59.8729 38.2189 59.785C38.3292 59.697 38.4195 59.5873 38.4841 59.4628C38.5486 59.3384 38.586 59.202 38.5938 59.0625L39.538 52.7969C40.5412 52.4673 41.5161 52.0713 42.4619 51.6055L47.6907 55.4258C47.8867 55.5689 48.1284 55.6378 48.3717 55.6199C48.6151 55.602 48.8437 55.4984 49.0158 55.3281L56.2006 48.2539C56.3725 48.0847 56.477 47.8603 56.4952 47.6216C56.5134 47.3829 56.444 47.1458 56.2997 46.9531L52.4237 41.8047C52.8964 40.8713 53.3001 39.9117 53.6337 38.9219L60.0687 37.9805C60.3091 37.9459 60.529 37.8275 60.6885 37.6469C60.8479 37.4663 60.9362 37.2354 60.9375 36.9961V26.9961C60.9383 26.756 60.8513 26.5237 60.6926 26.3416C60.5338 26.1594 60.3137 26.0396 60.0726 26.0039L53.6258 25.0625C53.2917 24.0767 52.8879 23.1169 52.4158 22.1875L56.2997 17.0352C56.444 16.8425 56.5134 16.6053 56.4952 16.3667C56.477 16.128 56.3725 15.9036 56.2006 15.7344L49.0158 8.66016C48.8442 8.48931 48.6158 8.38501 48.3725 8.36636C48.1292 8.34771 47.8872 8.41595 47.6907 8.55859L42.4698 12.3711C41.5208 11.9051 40.5406 11.5087 39.534 11.1797L38.5819 4.84375C38.5449 4.60774 38.4234 4.39254 38.2393 4.23707C38.0552 4.0816 37.8207 3.99613 37.5781 3.99609H27.4219ZM28.2986 5.99609H36.7014L37.6099 12.0312C37.638 12.2196 37.7202 12.396 37.8467 12.5399C37.9732 12.6839 38.1388 12.7893 38.324 12.8438C39.6462 13.2319 40.9253 13.7511 42.1405 14.3945C42.3105 14.4846 42.5031 14.525 42.6956 14.5112C42.8881 14.4974 43.0726 14.4298 43.2275 14.3164L48.1986 10.6836L54.1455 16.5352L50.444 21.4453C50.3295 21.5982 50.2616 21.7801 50.2482 21.9697C50.2349 22.1592 50.2767 22.3486 50.3687 22.5156C51.0212 23.7076 51.5485 24.961 51.9437 26.2578C51.9987 26.4396 52.1052 26.6023 52.2506 26.7268C52.396 26.8513 52.5744 26.9325 52.7649 26.9609L58.9063 27.8555V36.1328L52.7768 37.0234C52.5856 37.0512 52.4063 37.1321 52.2602 37.2566C52.114 37.3812 52.0069 37.5442 51.9516 37.7266C51.5574 39.0286 51.03 40.288 50.3766 41.4844C50.2846 41.6514 50.2428 41.8408 50.2562 42.0303C50.2695 42.2199 50.3374 42.4018 50.452 42.5547L54.1455 47.4531L48.1986 53.3047L43.2156 49.6641C43.0607 49.5507 42.8762 49.4831 42.6837 49.4693C42.4911 49.4554 42.2986 49.4959 42.1286 49.5859C41.0021 50.1838 39.8143 50.664 38.5938 51.043V42.3711C42.2304 40.292 44.6875 36.4253 44.6875 31.9961C44.6822 27.4935 42.1117 23.3708 38.0383 21.3242C37.8839 21.2469 37.7119 21.2098 37.5387 21.2165C37.3656 21.2231 37.197 21.2732 37.0491 21.3621C36.9012 21.451 36.7789 21.5756 36.6937 21.7242C36.6085 21.8728 36.5634 22.0403 36.5625 22.2109V31.4297L32.5 33.8281L28.4375 31.4297V22.1992C28.4376 22.0652 28.4103 21.9326 28.3572 21.8092C28.3042 21.6858 28.2266 21.5741 28.1289 21.4809C28.0312 21.3876 27.9154 21.3146 27.7885 21.2662C27.6616 21.2178 27.5262 21.195 27.3901 21.1992C27.2409 21.2042 27.0946 21.2416 26.9617 21.3086C22.8842 23.3574 20.313 27.4887 20.3125 31.9961C20.3125 36.4253 22.7696 40.292 26.4063 42.3711V51.0508C25.1812 50.6726 23.9906 50.1926 22.8595 49.5938C22.6895 49.5037 22.497 49.4633 22.3044 49.4771C22.1119 49.4909 21.9274 49.5585 21.7725 49.6719L16.8015 53.3047L10.8545 47.4531L14.556 42.543C14.6705 42.39 14.7384 42.2082 14.7518 42.0186C14.7651 41.8291 14.7233 41.6397 14.6314 41.4727C13.9788 40.2807 13.4515 39.0273 13.0563 37.7305C13.0013 37.5486 12.8948 37.386 12.7494 37.2615C12.604 37.137 12.4256 37.0558 12.2351 37.0273L6.09375 36.1328V27.8594L12.2232 26.9648C12.4145 26.9371 12.5937 26.8562 12.7399 26.7317C12.886 26.6071 12.9931 26.4441 13.0484 26.2617C13.4426 24.9597 13.97 23.7003 14.6234 22.5039C14.7154 22.3369 14.7572 22.1475 14.7438 21.958C14.7305 21.7684 14.6626 21.5865 14.548 21.4336L10.8545 16.5352L16.8015 10.6836L21.7844 14.3242C21.9393 14.4376 22.1238 14.5052 22.3163 14.519C22.5089 14.5328 22.7014 14.4924 22.8714 14.4023C24.0818 13.7599 25.3589 13.2369 26.676 12.8477C26.86 12.7928 27.0243 12.6877 27.15 12.5446C27.2757 12.4015 27.3576 12.2262 27.3862 12.0391L28.2986 5.99609ZM26.4063 24.4336V31.9961C26.4065 32.1683 26.4519 32.3376 26.5381 32.4875C26.6243 32.6373 26.7483 32.7627 26.8982 32.8516L31.9763 35.8516C32.1344 35.9452 32.3155 35.9947 32.5 35.9947C32.6845 35.9947 32.8656 35.9452 33.0237 35.8516L38.1018 32.8516C38.2517 32.7627 38.3757 32.6373 38.4619 32.4875C38.5481 32.3376 38.5935 32.1683 38.5938 31.9961V24.4453C40.9713 26.3175 42.6526 28.9257 42.6563 31.9961C42.6563 37.5307 38.1212 41.9961 32.5 41.9961C26.8788 41.9961 22.3438 37.5307 22.3438 31.9961C22.3441 28.9223 24.0263 26.3082 26.4063 24.4336ZM28.4375 43.293C29.711 43.7387 31.0734 43.9961 32.5 43.9961C33.9266 43.9961 35.289 43.7387 36.5625 43.293V57.9961H28.4375V43.293Z" fill="#1098F7"/>
</svg>
