<svg width="52" height="52" viewBox="0 0 52 52" fill="none" xmlns="http://www.w3.org/2000/svg">
<rect width="52" height="52" fill="white"/>
<path d="M50.375 48.3649C50.375 47.7612 50.0281 47.2493 49.5406 46.9641C49.7127 46.6773 49.8048 46.3496 49.8071 46.0151C49.8084 45.5241 49.6146 45.0526 49.2685 44.7044C48.9224 44.3561 48.4521 44.1595 47.9611 44.1577C47.9229 44.1577 47.8822 44.1691 47.8433 44.174V43.9441C47.8433 43.42 47.4191 42.9934 46.8975 42.9934C46.7651 42.9934 46.6432 43.0284 46.5294 43.0796V42.4076H47.9773V38.0624H46.9284V34.4419H47.9773V30.0958H46.9284V26.4745H47.9773V22.1284H46.9284V18.5071H47.9773V14.1619H46.9284V10.5406H47.9773V4.02269H38.3874V1.625H12.8139V4.74662H10.3163V4.02269H3.07369V40.235H1.625V42.4076H3.07369V50.375H50.375V49.5763H49.8412C50.1662 49.2749 50.375 48.8451 50.375 48.3649ZM32.0434 10.5414H35.6647V14.1627H32.0434V10.5414ZM32.0434 18.5071H35.6647V22.1284H32.0434V18.5071ZM32.0434 26.4745H35.6647V30.0958H32.0434V26.4745ZM32.0434 34.4419H35.6647V38.0632H32.0434V34.4419ZM24.8008 10.5414H28.4221V14.1627H24.8008V10.5414ZM24.8008 18.5071H28.4221V22.1284H24.8008V18.5071ZM24.8008 26.4745H28.4221V30.0958H24.8008V26.4745ZM24.8008 34.4419H28.4221V38.0632H24.8008V34.4419ZM13.3868 49.5763H11.2141V43.8571H13.3868V49.5763ZM16.2833 49.5763H14.1107V43.8571H16.2833V49.5763ZM21.1794 49.5763H17.0072V43.1324H10.4894V49.5763H4.52156V42.4084H21.1794V49.5763ZM21.1794 34.4419V40.2358H10.3155V33.3556H21.1794V34.4419ZM21.1794 26.4745V31.1821H10.3155V25.3882H21.1794V26.4745ZM21.1794 18.5071V23.2148H10.3155V17.4208H21.1794V18.5071ZM21.1794 10.5414V15.249H10.3155V9.45506H21.1794V10.5414ZM21.1794 7.28162H10.3155V5.47056H21.1794V7.28162ZM24.8008 49.5763H22.4039V48.7776H24.8008V42.4084H28.4221V48.7776H32.0434V42.4084H35.6647V48.7776H38.9797C39.1438 49.1636 39.4745 49.4544 39.8807 49.5763H24.8008ZM39.2868 44.9012V42.4084H42.9081V43.5191C42.8204 43.5013 42.7367 43.472 42.6424 43.472C42.3739 43.4731 42.1113 43.5506 41.8853 43.6955C41.6592 43.8404 41.4791 44.0467 41.366 44.2902C41.1698 44.2213 40.9637 44.1848 40.7558 44.1821C40.1586 44.1821 39.6321 44.4665 39.2868 44.9012ZM40.3804 48.2219C40.1196 48.2219 39.9108 48.4843 39.9108 48.2219C39.9108 48.0967 39.9605 47.9766 40.0491 47.8881C40.1376 47.7995 40.2577 47.7498 40.3829 47.7498C40.5081 47.7498 40.6281 47.7995 40.7167 47.8881C40.8052 47.9766 40.8549 48.0967 40.8549 48.2219C40.8549 48.4843 40.6453 48.2219 40.3804 48.2219ZM40.8874 45.6641C40.3642 45.6641 39.9401 46.4961 39.9401 45.9656C39.9401 45.7139 40.04 45.4725 40.218 45.2945C40.396 45.1165 40.6374 45.0166 40.8891 45.0166C41.1408 45.0166 41.3821 45.1165 41.5601 45.2945C41.7381 45.4725 41.8381 45.7139 41.8381 45.9656C41.8381 46.4969 41.4172 45.6641 40.8874 45.6641ZM42.9463 48.2186C42.4247 48.2186 42.0006 48.9491 42.0006 48.4226C42.001 48.1716 42.1007 47.9309 42.2778 47.7531C42.455 47.5753 42.6953 47.4748 42.9463 47.4736C43.0705 47.4738 43.1934 47.4985 43.308 47.5464C43.4226 47.5943 43.5266 47.6643 43.614 47.7525C43.7015 47.8407 43.7706 47.9453 43.8175 48.0603C43.8643 48.1753 43.888 48.2984 43.8872 48.4226C43.888 48.9491 43.4728 48.2186 42.9463 48.2186ZM44.1358 44.4218C44.1358 44.2523 44.2031 44.0898 44.323 43.9699C44.4428 43.8501 44.6054 43.7828 44.7748 43.7828C44.9443 43.7828 45.1069 43.8501 45.2267 43.9699C45.3465 44.0898 45.4139 44.2523 45.4139 44.4218C45.4139 44.7761 45.1295 44.2431 44.7728 44.2431C44.4202 44.2431 44.1358 44.7752 44.1358 44.4218ZM45.2473 46.7675C44.9865 46.7675 44.7777 47.0308 44.7777 46.7675C44.7777 46.5083 44.9865 46.2962 45.2473 46.2962C45.3095 46.2958 45.3711 46.3077 45.4286 46.3312C45.4862 46.3547 45.5385 46.3893 45.5826 46.4331C45.6267 46.4769 45.6617 46.529 45.6856 46.5864C45.7095 46.6438 45.7218 46.7053 45.7218 46.7675C45.7218 47.0308 45.5146 46.7675 45.2473 46.7675ZM45.7299 38.0632H38.4873V34.4419H45.7299V38.0632ZM45.7299 30.0958H38.4873V26.4745H45.7299V30.0958ZM45.7299 22.1284H38.4873V18.5071H45.7299V22.1284ZM45.7299 14.1627H38.4873V10.5414H45.7299V14.1627ZM46.5384 48.477C46.1849 48.477 45.9014 49.0092 45.9014 48.6558C45.8983 48.57 45.9126 48.4846 45.9433 48.4045C45.9739 48.3243 46.0205 48.2513 46.08 48.1895C46.1396 48.1278 46.211 48.0787 46.29 48.0452C46.3689 48.0116 46.4538 47.9944 46.5396 47.9944C46.6254 47.9944 46.7103 48.0116 46.7892 48.0452C46.8682 48.0787 46.9396 48.1278 46.9991 48.1895C47.0587 48.2513 47.1052 48.3243 47.1359 48.4045C47.1666 48.4846 47.1809 48.57 47.1778 48.6558C47.1778 49.0092 46.8959 48.477 46.5384 48.477ZM46.7033 45.3993C46.4417 45.3993 46.2337 45.7438 46.2337 45.4813C46.2337 45.2132 46.4417 45.0036 46.7033 45.0036C46.9609 45.0036 47.1778 45.2132 47.1778 45.4813C47.1778 45.7438 46.9617 45.3993 46.7033 45.3993ZM47.8335 46.8544C47.8335 46.7293 47.8832 46.6094 47.9716 46.5209C48.0601 46.4325 48.1801 46.3828 48.3052 46.3828C48.4302 46.3828 48.5502 46.4325 48.6387 46.5209C48.7271 46.6094 48.7768 46.7293 48.7768 46.8544C48.7768 47.1169 48.5688 46.7772 48.308 46.7772C48.0431 46.7772 47.8335 47.1169 47.8335 46.8544ZM48.7402 48.5452C48.4786 48.5452 48.2641 48.8134 48.2641 48.5452C48.2641 48.2869 48.4786 48.0716 48.7402 48.0716C48.9994 48.0716 49.2099 48.2869 49.2099 48.5452C49.2099 48.8134 49.0002 48.5452 48.7402 48.5452Z" fill="#1098F7"/>
</svg>
