<svg width="70" height="55" viewBox="0 0 70 55" fill="none" xmlns="http://www.w3.org/2000/svg">
<path d="M12.3734 14.1819L12.374 14.1822L43.4672 27.5211C45.9655 28.5895 47.5577 31.1306 47.5577 33.9784C47.5577 35.8549 47.0146 37.4144 45.958 38.507C44.8994 39.6018 43.3827 40.1683 41.5558 40.1683H30.4957C29.8722 40.1683 29.3395 40.6943 29.3395 41.378C29.3395 42.0616 29.8722 42.5877 30.4957 42.5877H41.5558C44.0724 42.5877 46.1488 41.7165 47.5964 40.2264C49.045 38.7353 49.9 36.5867 49.9 33.9681C49.9 30.1122 47.7464 26.7123 44.4022 25.2821L44.4014 25.2818L13.3671 11.9431C13.367 11.943 13.3668 11.9429 13.3667 11.9429C10.4504 10.696 7.18299 11.0665 4.42711 12.9675L4.42705 12.9675C1.82733 14.7602 0.55127 17.5403 0.55127 20.6302V33.9784C0.55127 37.6768 2.90319 41.0112 6.8679 42.4525L6.86847 42.4527C7.16894 42.5623 7.42437 42.5294 7.62877 42.4152C7.84077 42.2968 8.03896 42.0668 8.1583 41.7169L8.15848 41.7164C8.39859 41.015 8.11136 40.3654 7.56675 40.168L7.56627 40.1678C5.21792 39.3137 2.86368 37.2411 2.86368 33.9784V20.6302C2.86368 18.4208 3.7277 16.3468 5.69986 14.987L12.3734 14.1819ZM12.3734 14.1819C10.1403 13.2277 7.79045 13.5447 5.69999 14.9869L12.3734 14.1819Z" fill="#1098F7" stroke="white"/>
<path d="M19.4745 53.6176C12.7641 53.6176 7.27686 47.9775 7.27686 41.01C7.27686 34.0436 12.7641 28.4023 19.4745 28.4023C26.1849 28.4023 31.6721 34.0436 31.6721 41.01C31.6721 47.9775 26.1849 53.6176 19.4745 53.6176ZM19.4745 30.8217C14.0084 30.8217 9.58928 35.4067 9.58928 41.01C9.58928 46.6132 14.0084 51.1982 19.4745 51.1982C24.9395 51.1982 29.3597 46.6133 29.3597 41.01C29.3597 35.4067 24.9395 30.8217 19.4745 30.8217ZM19.4745 48.5752C15.456 48.5752 12.1605 45.1964 12.1605 41.01C12.1605 36.8236 15.456 33.4448 19.4745 33.4448C23.4908 33.4448 26.7874 36.8236 26.7874 41.01C26.7874 45.1964 23.4908 48.5752 19.4745 48.5752ZM19.4745 35.8642C16.7015 35.8642 14.4729 38.1865 14.4729 41.01C14.4729 43.8334 16.7015 46.1558 19.4745 46.1558C22.2476 46.1558 24.475 43.8333 24.475 41.01C24.475 38.1867 22.2476 35.8642 19.4745 35.8642Z" fill="#1098F7" stroke="white"/>
<path d="M58.2847 3.83601L58.2657 3.83521L58.2466 3.83587C57.4124 3.8645 56.5589 4.26424 55.9205 4.78948C55.2979 5.30169 54.7584 6.03734 54.7584 6.81577V32.3165C54.7584 35.1953 52.4478 37.373 49.6439 37.373C49.1436 37.373 48.6243 37.0487 48.4577 36.6237L48.4574 36.623C48.2619 36.1263 48.3501 35.6094 48.668 35.2917L48.6826 35.2771L48.6959 35.2614L48.8602 35.0677C49.0019 34.9319 49.2291 34.8231 49.5021 34.7727C49.7825 34.721 50.0545 34.7418 50.2428 34.8092L50.4054 34.8674L50.5693 34.8129C51.5427 34.4887 52.446 33.5947 52.446 32.3165V6.81577C52.446 3.92578 55.146 1.58897 57.8121 1.42435L57.8247 1.42357L57.8372 1.42216C57.8465 1.42112 57.8638 1.41901 57.8843 1.41508C57.9207 1.41526 57.9963 1.41606 58.0729 1.41751C58.1167 1.41835 58.1588 1.41936 58.1927 1.42052C58.2154 1.42129 58.2286 1.42197 58.2348 1.42228C58.2398 1.42254 58.24 1.42254 58.2365 1.42216L58.2481 1.42346L58.2598 1.42423C60.6182 1.57865 62.4872 3.62306 62.4872 6.81577V44.2273C62.4872 44.911 61.9544 45.437 61.331 45.437C60.7076 45.437 60.1748 44.911 60.1748 44.2273V6.81577C60.1748 6.34047 60.1284 5.65692 59.8932 5.06798C59.6509 4.46098 59.1645 3.87283 58.2847 3.83601Z" fill="#1098F7" stroke="white"/>
<path d="M64.7238 51.7062H55.8907C53.7459 51.7062 51.9741 49.9004 51.9741 47.647C51.9741 45.3937 53.7459 43.5879 55.8907 43.5879H64.7238C66.8685 43.5879 68.6403 45.3937 68.6403 47.647C68.6403 49.9004 66.8685 51.7062 64.7238 51.7062ZM55.8907 46.0073C54.9899 46.0073 54.2865 46.7583 54.2865 47.647C54.2865 48.5358 54.9899 49.2868 55.8907 49.2868H64.7238C65.6246 49.2868 66.3279 48.5358 66.3279 47.647C66.3279 46.7583 65.6246 46.0073 64.7238 46.0073H55.8907Z" fill="#1098F7" stroke="white"/>
<path d="M43.7441 27.583L43.743 27.5824L29.8712 19.6441C29.8711 19.644 29.871 19.644 29.8709 19.6439C29.4117 19.3802 29.1718 18.8192 29.3078 18.2764L29.3079 18.2764L29.3094 18.2698C29.3163 18.241 29.3252 18.2105 29.3373 18.1729L29.355 18.1181L29.3598 18.0607C29.5974 15.206 31.775 13.1394 34.6107 13.1394C35.5296 13.1394 36.4783 13.3744 37.3478 13.8232C37.3783 13.8394 37.4092 13.8572 37.4422 13.877L37.4426 13.8773L42.9953 17.2134L43.0063 17.22L43.0176 17.226C44.7405 18.1448 45.925 19.975 45.925 22.4451V26.521C45.925 26.6736 45.8546 26.8589 45.6959 27.061C45.5395 27.2602 45.3252 27.439 45.1144 27.5673C45.0611 27.5995 44.9349 27.645 44.7513 27.681C44.5781 27.7151 44.4063 27.7307 44.2974 27.7307C44.1067 27.7307 43.9159 27.6819 43.7441 27.583ZM32.0408 17.5383L31.9172 17.927L32.2732 18.1262L42.8685 24.0542L43.6126 24.4706V23.6179V22.4451C43.6126 20.9281 42.8947 19.8597 41.9366 19.3645L41.9367 19.3644L41.9267 19.3595C41.888 19.3406 41.8532 19.3292 41.8359 19.3238C41.8153 19.3173 41.7958 19.3121 41.7807 19.3083C41.757 19.3023 41.7298 19.2961 41.71 19.2915C41.7059 19.2906 41.702 19.2897 41.6987 19.289C41.6932 19.2877 41.6883 19.2866 41.6839 19.2855L36.3649 15.9861L36.3451 15.9738L36.3242 15.9634C35.8079 15.7063 35.3379 15.5588 34.7587 15.5588C33.6131 15.5588 32.47 16.1884 32.0408 17.5383Z" fill="#1098F7" stroke="white"/>
</svg>
