<svg width="60" height="67" viewBox="0 0 60 67" fill="none" xmlns="http://www.w3.org/2000/svg">
<path d="M6 7C5.45833 7 4.98958 7.20172 4.59375 7.60517C4.19792 8.00861 4 8.48638 4 9.03846V57.9615C4 58.5136 4.19792 58.9914 4.59375 59.3948C4.98958 59.7983 5.45833 60 6 60H54C54.5417 60 55.0104 59.7983 55.4062 59.3948C55.8021 58.9914 56 58.5136 56 57.9615V9.03846C56 8.48638 55.8021 8.00861 55.4062 7.60517C55.0104 7.20172 54.5417 7 54 7H6ZM50 35.5385V53.8846H32V35.5385H50ZM28 53.8846H10V35.5385H28V53.8846ZM32 13.1154H50V31.4615H32V13.1154ZM10 13.1154H28V31.4615H10V13.1154ZM40 25.3462C40.6875 26.514 41.9792 27.4855 43.875 28.2605C45.7708 29.0356 47.1458 29.4231 48 29.4231V15.1538H36C36.5625 17.617 37.0938 19.475 37.5938 20.7278C38.0938 21.9806 38.8958 23.52 40 25.3462ZM20 25.3462C21.1042 23.52 21.9062 21.9806 22.4062 20.7278C22.9062 19.475 23.4375 17.617 24 15.1538H12V29.4231C12.8542 29.4231 14.2292 29.0356 16.125 28.2605C18.0208 27.4855 19.3125 26.514 20 25.3462ZM46 39.6154C45.4583 41.0168 44.9948 42.8323 44.6094 45.0619C44.224 47.2915 44.0208 49.5529 44 51.8462H48V37.5769C47.5 37.5769 47.1146 37.7203 46.8438 38.0069C46.5729 38.2936 46.2917 38.8297 46 39.6154ZM14 39.6154C13.7083 38.8297 13.4271 38.2936 13.1562 38.0069C12.8854 37.7203 12.5 37.5769 12 37.5769V51.8462H16C15.9792 49.5529 15.776 47.2915 15.3906 45.0619C15.0052 42.8323 14.5417 41.0168 14 39.6154Z" fill="#1098F7"/>
</svg>
